<svg version="1.1" id="Layer_1" xmlns="http://www.w3.org/2000/svg" xmlns:xlink="http://www.w3.org/1999/xlink" x="0px" y="0px"
	 width="100%" viewBox="0 0 1024 768" enable-background="new 0 0 1024 768" xml:space="preserve">
<path fill="#000000" opacity="1.000000" stroke="none" 
	d="
M430.675446,367.999939 
	C430.675079,353.839783 430.800415,340.177826 430.599884,326.520630 
	C430.538086,322.312714 431.661102,320.636292 436.192169,320.647919 
	C487.500610,320.779846 538.809570,320.760864 590.118225,320.679565 
	C593.893066,320.673584 595.419678,321.713867 595.406921,325.770050 
	C595.282471,365.250732 595.280334,404.732117 595.395508,444.212860 
	C595.407288,448.249542 593.916199,449.332794 590.114075,449.326477 
	C538.805481,449.241547 487.496490,449.222595 436.188049,449.352142 
	C431.648438,449.363586 430.580383,447.654816 430.604828,443.463745 
	C430.750366,418.476532 430.676117,393.488007 430.675446,367.999939 
M579.999207,359.890442 
	C580.043213,356.150055 577.427185,356.267578 574.821106,356.268250 
	C533.667358,356.279114 492.513428,356.328125 451.360046,356.200409 
	C447.116302,356.187256 445.930756,357.737701 445.952606,361.739410 
	C446.073669,383.898346 446.098938,406.059082 445.920593,428.217316 
	C445.884827,432.656860 447.446960,433.895660 451.744904,433.882172 
	C492.565063,433.753998 533.386047,433.737579 574.205933,433.902069 
	C578.957886,433.921234 580.156189,432.201721 580.124329,427.785187 
	C579.963135,405.460022 580.042114,383.133118 579.999207,359.890442 
M543.465210,340.542755 
	C545.213074,340.148376 546.092163,339.157471 545.106201,337.456818 
	C544.472595,336.363953 543.241394,336.031708 542.237244,336.997101 
	C540.863098,338.318298 541.210876,339.547546 543.465210,340.542755 
M555.541992,339.150604 
	C556.468323,340.757507 557.720764,341.145050 559.043884,339.757599 
	C559.973999,338.782227 559.760071,337.520996 558.597656,336.866638 
	C556.884460,335.902100 555.870056,336.753784 555.541992,339.150604 
M569.917603,337.337036 
	C569.031311,339.069183 569.592041,340.246765 571.449036,340.495605 
	C572.763489,340.671783 573.700012,339.736877 573.528137,338.417664 
	C573.283081,336.537598 572.082214,336.030792 569.917603,337.337036 
z"/>
<path fill="#000000" opacity="1.000000" stroke="none" 
	d="
M545.696411,391.266357 
	C541.919556,387.486084 538.452332,383.883728 534.834167,380.439880 
	C532.574280,378.288879 532.672119,376.427612 535.170532,374.772644 
	C537.436401,373.271729 538.849854,368.616089 542.751709,372.494507 
	C549.484680,379.186920 556.192627,385.904694 562.960449,392.561707 
	C564.754761,394.326660 564.822327,395.876373 563.026733,397.663269 
	C556.297607,404.359833 549.552795,411.042542 542.930786,417.844147 
	C539.732605,421.128967 538.010071,418.412415 536.044250,416.454987 
	C534.054993,414.474304 531.491028,412.707672 534.876892,409.600891 
	C538.677246,406.113861 542.065247,402.174957 545.893494,398.721802 
	C548.775330,396.122345 549.159119,393.940735 545.696411,391.266357 
z"/>
<path fill="#000000" opacity="1.000000" stroke="none" 
	d="
M478.723541,413.269043 
	C473.651855,408.206818 468.918823,403.299530 463.967865,398.622864 
	C461.415558,396.211884 460.905945,394.400787 463.738342,391.715271 
	C470.126953,385.657898 476.409088,379.468811 482.418701,373.038147 
	C486.179321,369.014069 487.966095,372.312958 490.436829,374.393524 
	C493.267670,376.777283 493.272980,378.765289 490.499146,381.278015 
	C486.932281,384.509064 483.824921,388.254395 480.203674,391.416321 
	C476.960846,394.247803 477.334442,396.317383 480.346558,399.001709 
	C484.062134,402.312927 487.323944,406.130035 491.001007,409.488617 
	C495.073364,413.208221 491.024414,414.784851 489.277802,416.989441 
	C487.307434,419.476471 485.228149,420.376434 482.793945,417.448639 
	C481.629425,416.047913 480.252594,414.823700 478.723541,413.269043 
z"/>
<path fill="#000000" opacity="1.000000" stroke="none" 
	d="
M516.577332,372.599274 
	C519.825256,367.023407 522.697937,372.022766 525.541809,372.618195 
	C528.388367,373.214172 527.519348,375.569153 526.728699,377.472595 
	C520.930603,391.432098 515.032227,405.350830 509.361938,419.361908 
	C507.918121,422.929504 505.961426,422.797424 503.177216,421.300995 
	C500.557526,419.892944 496.837677,419.667297 498.943359,414.799072 
	C504.944244,400.925323 510.629822,386.915131 516.577332,372.599274 
z"/>
</svg>