<svg version="1.1" id="Layer_1" xmlns="http://www.w3.org/2000/svg" xmlns:xlink="http://www.w3.org/1999/xlink" x="0px" y="0px"
	 width="100%" viewBox="0 0 1024 768" enable-background="new 0 0 1024 768" xml:space="preserve">
<path fill="#000000" opacity="1.000000" stroke="none" 
	d="
M459.914612,398.938782 
	C463.169464,393.943298 469.212463,390.104126 469.018311,384.695190 
	C468.834869,379.585358 463.306396,375.620361 460.051819,371.223541 
	C449.353973,356.771362 438.463776,342.461609 427.670593,328.079742 
	C426.902252,327.055939 425.768768,326.158234 426.054993,323.898224 
	C434.661774,323.898224 443.362701,323.837494 452.061279,323.953217 
	C453.660858,323.974487 454.459351,325.621704 455.350586,326.809357 
	C469.143768,345.190674 482.884491,363.611725 496.766388,381.925720 
	C498.506592,384.221466 498.510162,385.872375 496.841766,388.084839 
	C482.905823,406.565491 469.042603,425.100922 455.136475,443.604095 
	C454.140106,444.929840 453.072968,446.284729 451.154694,446.285828 
	C442.857147,446.290680 434.559631,446.287903 424.460175,446.287903 
	C436.775848,429.845398 448.242157,414.536926 459.914612,398.938782 
z"/>
<path fill="#000000" opacity="1.000000" stroke="none" 
	d="
M554.391907,357.580627 
	C546.124390,346.577881 538.072998,335.860596 529.059082,323.862122 
	C539.218018,323.862122 547.764343,323.819855 556.309631,323.898438 
	C557.982056,323.913818 558.761963,325.468048 559.655396,326.658386 
	C573.457092,345.046387 587.214050,363.468231 601.101501,381.791199 
	C602.954163,384.235626 602.867981,385.960510 601.058960,388.353943 
	C587.296875,406.561462 573.654419,424.859314 559.963318,443.120514 
	C558.872314,444.575714 557.867432,446.263458 555.735229,446.270935 
	C547.433411,446.300018 539.131409,446.282776 530.864136,446.282776 
	C530.026855,443.213959 532.192810,441.901215 533.376709,440.311493 
	C546.114685,423.206970 558.839294,406.089996 571.835876,389.182678 
	C574.389771,385.860291 574.180054,383.761200 571.705078,380.645508 
	C565.802124,373.214417 560.282471,365.478790 554.391907,357.580627 
z"/>
<path fill="#000000" opacity="1.000000" stroke="none" 
	d="
M496.183075,349.789429 
	C489.930359,341.414612 483.894867,333.324219 477.471344,324.713654 
	C482.831116,322.932831 487.504791,324.330048 491.956055,323.629150 
	C501.599792,322.110596 507.727051,325.882904 513.267334,334.009705 
	C524.135559,349.951843 536.165588,365.109497 547.924133,380.431122 
	C550.440308,383.709717 550.812744,385.899506 548.095093,389.432678 
	C534.698547,406.849243 521.579651,424.480927 508.504395,442.141541 
	C506.192627,445.264008 503.642639,446.596039 499.717987,446.431335 
	C492.653503,446.134735 485.567627,446.347504 478.397400,446.347504 
	C478.372711,442.884613 480.351685,441.355072 481.681763,439.570831 
	C493.923126,423.149384 506.112335,406.685974 518.611694,390.462067 
	C521.703308,386.449188 521.791321,383.557159 518.653870,379.583252 
	C511.021545,369.916138 503.792084,359.930939 496.183075,349.789429 
z"/>
</svg>