<svg version="1.1" id="Layer_1" xmlns="http://www.w3.org/2000/svg" xmlns:xlink="http://www.w3.org/1999/xlink" x="0px" y="0px"
	 width="100%" viewBox="0 0 1024 768" enable-background="new 0 0 1024 768" xml:space="preserve">
<path fill="#000000" opacity="1.000000" stroke="none" 
	d="
M461.912201,350.000000 
	C461.887054,378.155823 461.968567,405.812592 461.723236,433.466461 
	C461.685211,437.753418 463.600159,437.932617 466.804169,437.927673 
	C502.290527,437.872864 537.777039,437.870239 573.263306,437.942749 
	C575.575745,437.947479 578.986206,436.670929 579.880798,439.723328 
	C580.938843,443.333649 580.973022,447.401154 579.717590,451.041260 
	C579.029480,453.036407 576.488525,452.285278 574.738586,452.289276 
	C555.745911,452.332581 536.753113,452.316559 517.760315,452.315430 
	C496.435120,452.314117 475.108643,452.186188 453.785706,452.405365 
	C448.995667,452.454590 447.528046,451.009277 447.547180,446.185181 
	C447.709198,405.368073 447.625885,364.550018 447.631104,323.732269 
	C447.631866,317.703003 447.667908,317.703003 454.843872,317.700165 
	C461.820343,317.697388 461.871704,317.721130 461.892853,324.009918 
	C461.921448,332.506531 461.907379,341.003296 461.912201,350.000000 
z"/>
<path fill="#000000" opacity="1.000000" stroke="none" 
	d="
M511.565125,368.001343 
	C506.019287,368.306244 503.606934,371.249817 502.265594,376.241089 
	C499.763153,385.552887 496.636780,394.699371 493.673096,403.883362 
	C492.901886,406.273315 493.120667,408.104431 494.597717,410.336670 
	C499.780670,418.169434 497.469910,427.617798 489.674835,431.798096 
	C482.240509,435.784882 472.876831,432.475922 469.557098,424.688873 
	C465.936218,416.195374 470.073395,407.730408 479.524628,404.738556 
	C481.701233,404.049561 482.941162,402.935181 483.594147,400.859497 
	C486.890533,390.381775 490.181732,379.902069 493.561890,369.451263 
	C494.260681,367.290802 493.680695,365.822784 492.327179,364.046875 
	C487.806030,358.114624 487.772827,351.604736 491.880280,346.032715 
	C495.356903,341.316467 501.762573,339.153625 507.455261,340.773834 
	C514.057739,342.653015 518.127136,347.901276 518.180664,355.290436 
	C518.200989,358.104218 519.021606,359.990601 521.289429,361.579834 
	C524.971313,364.160034 528.480469,366.985229 532.117249,369.631805 
	C536.931335,373.135101 541.452698,371.811890 543.442871,366.270355 
	C545.467834,360.631622 547.245056,354.902496 549.335754,349.289307 
	C550.520813,346.107452 550.466675,343.657867 548.246704,340.630676 
	C543.025391,333.510681 545.516602,323.647278 553.030701,319.525787 
	C560.458252,315.451752 569.777100,318.531860 573.303772,326.226593 
	C576.796631,333.847382 573.520874,342.697021 565.544861,345.657745 
	C561.947937,346.992950 560.233398,349.032318 559.230347,352.508087 
	C557.754944,357.620880 556.074951,362.697052 554.098633,367.635315 
	C552.682617,371.173706 552.683899,373.837830 555.200134,377.159027 
	C559.433105,382.746124 558.291626,390.578888 553.403748,395.413971 
	C548.625000,400.141113 540.653503,400.940857 534.973083,397.101349 
	C530.839111,394.307159 528.421021,390.322723 528.764221,385.285614 
	C529.025452,381.452881 527.597412,379.089233 524.479492,377.070618 
	C520.154968,374.270874 516.077393,371.089691 511.565125,368.001343 
z"/>
</svg>