<svg version="1.1" id="Layer_1" xmlns="http://www.w3.org/2000/svg" xmlns:xlink="http://www.w3.org/1999/xlink" x="0px" y="0px"
	 width="100%" viewBox="0 0 3998 2999" enable-background="new 0 0 3998 2999" xml:space="preserve">
<path fill="#FFFFFF" opacity="1.000000" stroke="none" 
	d="
M3748.000000,3002.000000 
	C2498.666992,3002.000000 1250.334106,3002.000000 2.000837,3002.000000 
	C2.000558,2002.000610 2.000558,1002.001343 2.000279,2.001508 
	C1334.665649,2.001005 2667.331299,2.001005 3999.997559,2.000503 
	C3999.998535,1001.998596 3999.998535,2001.997192 3999.999268,3001.998047 
	C3916.333252,3002.000000 3832.666748,3002.000000 3748.000000,3002.000000 
M1793.000000,1331.914795 
	C1828.540405,1331.914795 1864.080811,1331.914795 1899.904785,1331.914795 
	C1899.904785,1308.906128 1899.904785,1286.782349 1899.904785,1264.729736 
	C1831.917847,1264.729736 1764.541504,1264.729736 1696.902832,1264.729736 
	C1696.902832,1287.226685 1696.902832,1309.024658 1696.902832,1331.914795 
	C1728.632446,1331.914795 1759.816162,1331.914795 1793.000000,1331.914795 
M2063.000000,1264.034302 
	C2031.806885,1264.034302 2000.613770,1264.034302 1969.030640,1264.034302 
	C1969.030640,1287.121094 1969.030640,1309.168213 1969.030640,1331.240845 
	C2037.113403,1331.240845 2104.462402,1331.240845 2172.047852,1331.240845 
	C2172.047852,1308.683594 2172.047852,1286.802124 2172.047852,1264.034302 
	C2136.086426,1264.034302 2100.543213,1264.034302 2063.000000,1264.034302 
M2003.002686,1535.875854 
	C1991.782349,1535.875854 1980.562012,1535.875854 1969.031006,1535.875854 
	C1969.031006,1559.078613 1969.031006,1581.146973 1969.031006,1603.190674 
	C2037.128540,1603.190674 2104.491943,1603.190674 2172.053711,1603.190674 
	C2172.053711,1580.568481 2172.053711,1558.670166 2172.053711,1536.947144 
	C2171.033691,1536.511230 2170.431152,1536.028809 2169.828125,1536.027954 
	C2114.885986,1535.953369 2059.943604,1535.915894 2003.002686,1535.875854 
M1787.000000,1739.742798 
	C1826.978149,1739.615479 1866.956421,1739.489014 1906.934570,1739.345093 
	C1907.231201,1739.343994 1907.569092,1739.156372 1907.811890,1738.961426 
	C1908.063599,1738.759521 1908.223022,1738.442383 1908.553223,1738.001221 
	C1908.553223,1716.324341 1908.553223,1694.478027 1908.553223,1672.722168 
	C1893.489868,1670.850098 1712.674072,1671.548706 1705.525757,1673.453125 
	C1705.525757,1695.269043 1705.525757,1717.109741 1705.525757,1739.742676 
	C1732.452148,1739.742676 1758.726074,1739.742676 1787.000000,1739.742798 
M1749.114624,1462.374268 
	C1751.596680,1460.172485 1754.350952,1458.208130 1756.514526,1455.728516 
	C1766.890747,1443.837646 1767.331787,1426.115723 1757.758301,1413.269287 
	C1748.040649,1400.229370 1730.404419,1395.994507 1715.675537,1403.163940 
	C1701.338745,1410.142578 1693.731079,1426.191650 1697.398682,1441.535156 
	C1702.987671,1464.915894 1729.034790,1474.631958 1749.114624,1462.374268 
M2029.732544,1413.306519 
	C2027.642822,1411.173218 2025.759766,1408.776123 2023.428833,1406.950928 
	C2011.394043,1397.528076 1994.696167,1397.297363 1982.496704,1406.213257 
	C1970.165771,1415.225586 1965.302734,1430.969604 1970.403442,1445.366089 
	C1975.463867,1459.649170 1989.300171,1468.816895 2004.648438,1467.809692 
	C2031.581299,1466.042603 2045.437134,1435.562012 2029.732544,1413.306519 
M1755.721802,1592.714478 
	C1757.290894,1590.569702 1759.096436,1588.557739 1760.390137,1586.258057 
	C1767.904541,1572.900513 1765.146362,1555.510742 1753.964966,1544.969604 
	C1742.929443,1534.566040 1726.339722,1532.720215 1713.235596,1540.437378 
	C1699.896973,1548.292847 1693.397339,1564.437256 1697.855225,1579.238403 
	C1706.035278,1606.399780 1738.643311,1611.178955 1755.721802,1592.714478 
M2240.570068,1574.184082 
	C2241.223633,1576.761353 2241.644775,1579.425415 2242.569092,1581.901733 
	C2247.888184,1596.154175 2261.812256,1604.917847 2277.128906,1603.792236 
	C2291.625000,1602.726929 2304.257080,1591.925659 2307.658936,1577.687134 
	C2311.156006,1563.050415 2304.373291,1547.503540 2291.276123,1540.134155 
	C2277.974365,1532.649780 2261.648193,1534.769287 2250.717529,1545.428833 
	C2243.102783,1552.854614 2239.904297,1561.982178 2240.570068,1574.184082 
M1881.163696,1464.545288 
	C1884.147949,1462.462280 1887.454224,1460.717896 1890.061890,1458.238525 
	C1902.245483,1446.655396 1904.022339,1428.373291 1894.553589,1414.525146 
	C1885.114014,1400.719727 1867.251343,1395.842285 1852.113892,1402.936890 
	C1837.067871,1409.988403 1829.392578,1426.871826 1833.733154,1442.960693 
	C1838.854614,1461.943970 1860.335938,1473.558716 1881.163696,1464.545288 
M1900.122681,1564.438965 
	C1899.296143,1561.572144 1898.786011,1558.565674 1897.590820,1555.861816 
	C1890.710938,1540.297241 1873.155273,1532.267944 1856.944458,1537.110107 
	C1841.016724,1541.867554 1830.485352,1557.808960 1832.641968,1573.896851 
	C1834.985352,1591.378784 1849.499878,1603.988403 1866.956299,1603.880005 
	C1888.181396,1603.748169 1903.162842,1583.973022 1900.122681,1564.438965 
z"/>
<path fill="#2E8D9E" opacity="1.000000" stroke="none" 
	d="
M1792.000000,1331.914795 
	C1759.816162,1331.914795 1728.632446,1331.914795 1696.902832,1331.914795 
	C1696.902832,1309.024658 1696.902832,1287.226685 1696.902832,1264.729736 
	C1764.541504,1264.729736 1831.917847,1264.729736 1899.904785,1264.729736 
	C1899.904785,1286.782349 1899.904785,1308.906128 1899.904785,1331.914795 
	C1864.080811,1331.914795 1828.540405,1331.914795 1792.000000,1331.914795 
z"/>
<path fill="#2E8D9E" opacity="1.000000" stroke="none" 
	d="
M2064.000000,1264.034302 
	C2100.543213,1264.034302 2136.086426,1264.034302 2172.047852,1264.034302 
	C2172.047852,1286.802124 2172.047852,1308.683594 2172.047852,1331.240845 
	C2104.462402,1331.240845 2037.113403,1331.240845 1969.030640,1331.240845 
	C1969.030640,1309.168213 1969.030640,1287.121094 1969.030640,1264.034302 
	C2000.613770,1264.034302 2031.806885,1264.034302 2064.000000,1264.034302 
z"/>
<path fill="#2E8D9E" opacity="1.000000" stroke="none" 
	d="
M2004.001953,1535.875854 
	C2059.943604,1535.915894 2114.885986,1535.953369 2169.828125,1536.027954 
	C2170.431152,1536.028809 2171.033691,1536.511230 2172.053711,1536.947144 
	C2172.053711,1558.670166 2172.053711,1580.568481 2172.053711,1603.190674 
	C2104.491943,1603.190674 2037.128540,1603.190674 1969.031006,1603.190674 
	C1969.031006,1581.146973 1969.031006,1559.078613 1969.031006,1535.875854 
	C1980.562012,1535.875854 1991.782349,1535.875854 2004.001953,1535.875854 
z"/>
<path fill="#2E8D9E" opacity="1.000000" stroke="none" 
	d="
M1786.000000,1739.742676 
	C1758.726074,1739.742676 1732.452148,1739.742676 1705.525757,1739.742676 
	C1705.525757,1717.109741 1705.525757,1695.269043 1705.525757,1673.453125 
	C1712.674072,1671.548706 1893.489868,1670.850098 1908.553223,1672.722168 
	C1908.553223,1694.478027 1908.553223,1716.324341 1908.553223,1738.001221 
	C1908.223022,1738.442383 1908.063599,1738.759521 1907.811890,1738.961426 
	C1907.569092,1739.156372 1907.231201,1739.343994 1906.934570,1739.345093 
	C1866.956421,1739.489014 1826.978149,1739.615479 1786.000000,1739.742676 
z"/>
<path fill="#308E9F" opacity="1.000000" stroke="none" 
	d="
M1748.493652,1462.784790 
	C1729.034790,1474.631958 1702.987671,1464.915894 1697.398682,1441.535156 
	C1693.731079,1426.191650 1701.338745,1410.142578 1715.675537,1403.163940 
	C1730.404419,1395.994507 1748.040649,1400.229370 1757.758301,1413.269287 
	C1767.331787,1426.115723 1766.890747,1443.837646 1756.514526,1455.728516 
	C1754.350952,1458.208130 1751.596680,1460.172485 1748.493652,1462.784790 
z"/>
<path fill="#308E9F" opacity="1.000000" stroke="none" 
	d="
M2030.133545,1413.903320 
	C2045.437134,1435.562012 2031.581299,1466.042603 2004.648438,1467.809692 
	C1989.300171,1468.816895 1975.463867,1459.649170 1970.403442,1445.366089 
	C1965.302734,1430.969604 1970.165771,1415.225586 1982.496704,1406.213257 
	C1994.696167,1397.297363 2011.394043,1397.528076 2023.428833,1406.950928 
	C2025.759766,1408.776123 2027.642822,1411.173218 2030.133545,1413.903320 
z"/>
<path fill="#308E9F" opacity="1.000000" stroke="none" 
	d="
M1755.222778,1593.228271 
	C1738.643311,1611.178955 1706.035278,1606.399780 1697.855225,1579.238403 
	C1693.397339,1564.437256 1699.896973,1548.292847 1713.235596,1540.437378 
	C1726.339722,1532.720215 1742.929443,1534.566040 1753.964966,1544.969604 
	C1765.146362,1555.510742 1767.904541,1572.900513 1760.390137,1586.258057 
	C1759.096436,1588.557739 1757.290894,1590.569702 1755.222778,1593.228271 
z"/>
<path fill="#308E9F" opacity="1.000000" stroke="none" 
	d="
M2240.480957,1573.345337 
	C2239.904297,1561.982178 2243.102783,1552.854614 2250.717529,1545.428833 
	C2261.648193,1534.769287 2277.974365,1532.649780 2291.276123,1540.134155 
	C2304.373291,1547.503540 2311.156006,1563.050415 2307.658936,1577.687134 
	C2304.257080,1591.925659 2291.625000,1602.726929 2277.128906,1603.792236 
	C2261.812256,1604.917847 2247.888184,1596.154175 2242.569092,1581.901733 
	C2241.644775,1579.425415 2241.223633,1576.761353 2240.480957,1573.345337 
z"/>
<path fill="#308E9F" opacity="1.000000" stroke="none" 
	d="
M1880.467529,1464.897705 
	C1860.335938,1473.558716 1838.854614,1461.943970 1833.733154,1442.960693 
	C1829.392578,1426.871826 1837.067871,1409.988403 1852.113892,1402.936890 
	C1867.251343,1395.842285 1885.114014,1400.719727 1894.553589,1414.525146 
	C1904.022339,1428.373291 1902.245483,1446.655396 1890.061890,1458.238525 
	C1887.454224,1460.717896 1884.147949,1462.462280 1880.467529,1464.897705 
z"/>
<path fill="#308E9F" opacity="1.000000" stroke="none" 
	d="
M1900.223633,1565.223633 
	C1903.162842,1583.973022 1888.181396,1603.748169 1866.956299,1603.880005 
	C1849.499878,1603.988403 1834.985352,1591.378784 1832.641968,1573.896851 
	C1830.485352,1557.808960 1841.016724,1541.867554 1856.944458,1537.110107 
	C1873.155273,1532.267944 1890.710938,1540.297241 1897.590820,1555.861816 
	C1898.786011,1558.565674 1899.296143,1561.572144 1900.223633,1565.223633 
z"/>
</svg>